<?xml version="1.0" encoding="UTF-8" standalone="no"?>
<svg
   width="211.56pt"
   height="201.6pt"
   viewBox="0 0 211.56 201.6"
   version="1.1"
   id="svg383"
   sodipodi:docname="bar_heat_work_no_rec_no_box.svg"
   inkscape:version="1.2.1 (9c6d41e410, 2022-07-14)"
   xmlns:inkscape="http://www.inkscape.org/namespaces/inkscape"
   xmlns:sodipodi="http://sodipodi.sourceforge.net/DTD/sodipodi-0.dtd"
   xmlns:xlink="http://www.w3.org/1999/xlink"
   xmlns="http://www.w3.org/2000/svg"
   xmlns:svg="http://www.w3.org/2000/svg"
   xmlns:rdf="http://www.w3.org/1999/02/22-rdf-syntax-ns#"
   xmlns:cc="http://creativecommons.org/ns#"
   xmlns:dc="http://purl.org/dc/elements/1.1/">
  <sodipodi:namedview
     id="namedview385"
     pagecolor="#ffffff"
     bordercolor="#cccccc"
     borderopacity="1"
     inkscape:showpageshadow="0"
     inkscape:pageopacity="1"
     inkscape:pagecheckerboard="0"
     inkscape:deskcolor="#d1d1d1"
     inkscape:document-units="pt"
     showgrid="false"
     inkscape:zoom="3.0840773"
     inkscape:cx="103.27238"
     inkscape:cy="134.56213"
     inkscape:window-width="1920"
     inkscape:window-height="1009"
     inkscape:window-x="-8"
     inkscape:window-y="-8"
     inkscape:window-maximized="1"
     inkscape:current-layer="svg383" />
  <metadata
     id="metadata2">
    <rdf:RDF>
      <cc:Work>
        <dc:type
           rdf:resource="http://purl.org/dc/dcmitype/StillImage" />
        <dc:date>2026-06-27T00:04:15.820515</dc:date>
        <dc:format>image/svg+xml</dc:format>
        <dc:creator>
          <cc:Agent>
            <dc:title>Matplotlib v3.10.3, https://matplotlib.org/</dc:title>
          </cc:Agent>
        </dc:creator>
      </cc:Work>
    </rdf:RDF>
  </metadata>
  <defs
     id="defs6">
    <style
       type="text/css"
       id="style4">*{stroke-linejoin: round; stroke-linecap: butt}</style>
  </defs>
  <g
     id="patch_1">
    <path
       d="M 0,201.6 H 211.56 V 0 H 0 Z"
       style="fill:#ffffff"
       id="path8" />
  </g>
  <g
     id="axes_1">
    <g
       id="patch_2">
      <path
         d="M 14.8092,165.312 H 49.501093 V 16.128 H 14.8092 Z"
         style="fill:#ffffff"
         id="path11" />
    </g>
    <g
       id="matplotlib.axis_1" />
    <g
       id="matplotlib.axis_2">
      <g
         id="text_1">
        <!-- Heat input [kW] -->
        <g
           transform="matrix(0,-0.08,-0.08,0,9.14545,122.4325)"
           id="g60">
          <defs
             id="defs28">
            <path
               id="DejaVuSans-48"
               d="m 628,4666 h 631 V 2753 h 2294 v 1913 h 631 V 0 H 3553 V 2222 H 1259 V 0 H 628 Z"
               transform="scale(0.015625)" />
            <path
               id="DejaVuSans-65"
               d="M 3597,1894 V 1613 H 953 q 38,-594 358,-905 320,-311 892,-311 331,0 642,81 311,81 618,244 V 178 Q 3153,47 2828,-22 2503,-91 2169,-91 1331,-91 842,396 353,884 353,1716 q 0,859 464,1363 464,505 1252,505 706,0 1117,-455 411,-454 411,-1235 z m -575,169 q -6,471 -264,752 -258,282 -683,282 -481,0 -770,-272 -289,-272 -333,-766 z"
               transform="scale(0.015625)" />
            <path
               id="DejaVuSans-61"
               d="m 2194,1759 q -697,0 -966,-159 -269,-159 -269,-544 0,-306 202,-486 202,-179 548,-179 479,0 768,339 289,339 289,901 v 128 z m 1147,238 V 0 H 2766 V 531 Q 2569,213 2275,61 1981,-91 1556,-91 q -537,0 -855,302 -317,302 -317,808 0,590 395,890 396,300 1180,300 h 807 v 57 q 0,397 -261,614 -261,217 -733,217 -300,0 -585,-72 -284,-72 -546,-216 v 532 q 315,122 612,182 297,61 578,61 760,0 1135,-394 375,-393 375,-1193 z"
               transform="scale(0.015625)" />
            <path
               id="DejaVuSans-74"
               d="M 1172,4494 V 3500 H 2356 V 3053 H 1172 V 1153 q 0,-428 117,-550 117,-122 477,-122 h 590 V 0 H 1766 Q 1100,0 847,248 594,497 594,1153 V 3053 H 172 v 447 h 422 v 994 z"
               transform="scale(0.015625)" />
            <path
               id="DejaVuSans-20"
               transform="scale(0.015625)"
               d="" />
            <path
               id="DejaVuSans-69"
               d="m 603,3500 h 575 V 0 H 603 Z m 0,1363 h 575 V 4134 H 603 Z"
               transform="scale(0.015625)" />
            <path
               id="DejaVuSans-6e"
               d="M 3513,2113 V 0 h -575 v 2094 q 0,497 -194,743 -194,247 -581,247 -466,0 -735,-297 -269,-296 -269,-809 V 0 H 581 v 3500 h 578 v -544 q 207,316 486,472 280,156 646,156 603,0 912,-373 310,-373 310,-1098 z"
               transform="scale(0.015625)" />
            <path
               id="DejaVuSans-70"
               d="M 1159,525 V -1331 H 581 v 4831 h 578 v -531 q 182,312 458,463 277,152 661,152 638,0 1036,-506 399,-506 399,-1331 0,-825 -399,-1332 -398,-506 -1036,-506 -384,0 -661,152 -276,152 -458,464 z m 1957,1222 q 0,634 -261,995 -261,361 -717,361 -457,0 -718,-361 -261,-361 -261,-995 0,-634 261,-995 261,-361 718,-361 456,0 717,361 261,361 261,995 z"
               transform="scale(0.015625)" />
            <path
               id="DejaVuSans-75"
               d="m 544,1381 v 2119 h 575 V 1403 q 0,-497 193,-746 194,-248 582,-248 465,0 735,297 271,297 271,810 v 1984 h 575 V 0 H 2900 V 538 Q 2691,219 2414,64 2138,-91 1772,-91 1169,-91 856,284 544,659 544,1381 Z m 1447,2203 z"
               transform="scale(0.015625)" />
            <path
               id="DejaVuSans-5b"
               d="M 550,4863 H 1875 V 4416 H 1125 V -397 h 750 V -844 H 550 Z"
               transform="scale(0.015625)" />
            <path
               id="DejaVuSans-6b"
               d="m 581,4863 h 578 V 1991 l 1716,1509 h 734 L 1753,1863 3688,0 H 2938 L 1159,1709 V 0 H 581 Z"
               transform="scale(0.015625)" />
            <path
               id="DejaVuSans-57"
               d="m 213,4666 h 637 l 981,-3944 978,3944 h 710 l 981,-3944 978,3944 h 641 L 4947,0 H 4153 L 3169,4050 2175,0 h -794 z"
               transform="scale(0.015625)" />
            <path
               id="DejaVuSans-5d"
               d="M 1947,4863 V -844 H 622 v 447 h 747 V 4416 H 622 v 447 z"
               transform="scale(0.015625)" />
          </defs>
          <use
             xlink:href="#DejaVuSans-48"
             id="use30" />
          <use
             xlink:href="#DejaVuSans-65"
             transform="translate(75.195312)"
             id="use32" />
          <use
             xlink:href="#DejaVuSans-61"
             transform="translate(136.71875)"
             id="use34" />
          <use
             xlink:href="#DejaVuSans-74"
             transform="translate(197.99805)"
             id="use36" />
          <use
             xlink:href="#DejaVuSans-20"
             transform="translate(237.20703)"
             id="use38" />
          <use
             xlink:href="#DejaVuSans-69"
             transform="translate(268.99414)"
             id="use40" />
          <use
             xlink:href="#DejaVuSans-6e"
             transform="translate(296.77734)"
             id="use42" />
          <use
             xlink:href="#DejaVuSans-70"
             transform="translate(360.15625)"
             id="use44" />
          <use
             xlink:href="#DejaVuSans-75"
             transform="translate(423.63281)"
             id="use46" />
          <use
             xlink:href="#DejaVuSans-74"
             transform="translate(487.01172)"
             id="use48" />
          <use
             xlink:href="#DejaVuSans-20"
             transform="translate(526.2207)"
             id="use50" />
          <use
             xlink:href="#DejaVuSans-5b"
             transform="translate(558.00781)"
             id="use52" />
          <use
             xlink:href="#DejaVuSans-6b"
             transform="translate(597.02148)"
             id="use54" />
          <use
             xlink:href="#DejaVuSans-57"
             transform="translate(654.93164)"
             id="use56" />
          <use
             xlink:href="#DejaVuSans-5d"
             transform="translate(753.80859)"
             id="use58" />
        </g>
      </g>
    </g>
    <g
       id="patch_3">
      <path
         d="M 14.8092,165.312 V 16.128"
         style="fill:none;stroke:#000000;stroke-width:0.6;stroke-linecap:square;stroke-linejoin:miter"
         id="path64" />
    </g>
    <g
       id="patch_4">
      <path
         d="M 14.8092,151.74982 H 49.501093"
         style="fill:none;stroke:#000000;stroke-width:0.6;stroke-linecap:square;stroke-linejoin:miter"
         id="path67" />
    </g>
    <g
       id="patch_5">
      <path
         d="M 22.971998,151.74982 H 42.358645 V 28.457256 H 22.971998 Z"
         clip-path="url(#p332ef23dd1)"
         style="stroke:#000000;stroke-width:0.6;stroke-linejoin:miter"
         id="path70" />
    </g>
    <g
       id="patch_6">
      <path
         d="m 14.8092,26.065344 q 0,-6.952483 0,-13.01054"
         style="fill:none;stroke:#000000;stroke-width:0.8;stroke-linecap:round"
         id="path73" />
      <path
         d="m 12.8092,17.054804 2,-4 2,4"
         style="fill:none;stroke:#000000;stroke-width:0.8;stroke-linecap:round"
         id="path75" />
    </g>
    <g
       id="patch_7">
      <path
         d="m 48.727979,151.74982 q 0.733476,0 0.572525,0"
         style="fill:none;stroke:#000000;stroke-width:0.8;stroke-linecap:round"
         id="path78" />
      <path
         d="m 45.300504,149.74982 4,2 -4,2"
         style="fill:none;stroke:#000000;stroke-width:0.8;stroke-linecap:round"
         id="path80" />
    </g>
    <g
       id="text_2">
      <!-- 2027 -->
      <g
         transform="matrix(0.07,0,0,-0.07,23.757821,27.000745)"
         id="g96">
        <defs
           id="defs86">
          <path
             id="DejaVuSans-32"
             d="M 1228,531 H 3431 V 0 H 469 v 531 q 359,372 979,998 621,627 780,809 303,340 423,576 121,236 121,464 0,372 -261,606 -261,235 -680,235 -297,0 -627,-103 -329,-103 -704,-313 v 638 q 381,153 712,231 332,78 607,78 725,0 1156,-363 431,-362 431,-968 0,-288 -108,-546 -107,-257 -392,-607 -78,-91 -497,-524 Q 1991,1309 1228,531 Z"
             transform="scale(0.015625)" />
          <path
             id="DejaVuSans-30"
             d="m 2034,4250 q -487,0 -733,-480 -245,-479 -245,-1442 0,-959 245,-1439 246,-480 733,-480 491,0 736,480 246,480 246,1439 0,963 -246,1442 -245,480 -736,480 z m 0,500 q 785,0 1199,-621 414,-620 414,-1801 0,-1178 -414,-1799 -414,-620 -1199,-620 -784,0 -1198,620 -414,621 -414,1799 0,1181 414,1801 414,621 1198,621 z"
             transform="scale(0.015625)" />
          <path
             id="DejaVuSans-37"
             d="M 525,4666 H 3525 V 4397 L 1831,0 H 1172 L 2766,4134 H 525 Z"
             transform="scale(0.015625)" />
        </defs>
        <use
           xlink:href="#DejaVuSans-32"
           id="use88" />
        <use
           xlink:href="#DejaVuSans-30"
           transform="translate(63.623047)"
           id="use90" />
        <use
           xlink:href="#DejaVuSans-32"
           transform="translate(127.24609)"
           id="use92" />
        <use
           xlink:href="#DejaVuSans-37"
           transform="translate(190.86914)"
           id="use94" />
      </g>
    </g>
    <g
       id="text_3">
      <!-- $\dot{Q}_{in}$ -->
      <g
         transform="matrix(0.07,0,0,-0.07,27.520321,172.5406)"
         id="g113">
        <defs
           id="defs103">
          <path
             id="DejaVuSans-307"
             d="m -1894,4863 h 575 v -729 h -575 z m 294,-1279 z"
             transform="scale(0.015625)" />
          <path
             id="DejaVuSans-Oblique-51"
             d="m 2309,-84 q -34,-4 -72,-5 -37,-2 -112,-2 -875,0 -1369,502 -493,502 -493,1386 0,522 189,1047 189,525 526,944 391,481 880,721 489,241 1080,241 856,0 1349,-505 494,-504 494,-1376 0,-941 -516,-1722 Q 3750,366 2919,44 l 634,-869 h -706 z m 610,4322 q -519,0 -916,-252 -397,-252 -690,-767 -188,-328 -287,-697 -98,-369 -98,-744 0,-650 311,-1003 311,-353 880,-353 512,0 913,254 402,255 687,758 190,338 290,708 100,371 100,739 0,647 -313,1002 -312,355 -877,355 z"
             transform="scale(0.015625)" />
          <path
             id="DejaVuSans-Oblique-69"
             d="m 1172,4863 h 575 L 1606,4134 H 1031 Z M 909,3500 h 575 L 800,0 H 225 Z"
             transform="scale(0.015625)" />
          <path
             id="DejaVuSans-Oblique-6e"
             d="M 3566,2113 3156,0 h -578 l 410,2091 q 28,147 43,259 16,113 16,178 0,263 -166,409 -165,147 -462,147 -463,0 -797,-308 -334,-307 -438,-835 L 800,0 H 225 l 678,3500 h 575 l -115,-550 q 240,303 577,468 338,166 710,166 463,0 717,-250 255,-250 255,-703 0,-112 -14,-240 -14,-128 -42,-278 z"
             transform="scale(0.015625)" />
        </defs>
        <use
           xlink:href="#DejaVuSans-307"
           transform="translate(74.271484,31.015625)"
           id="use105" />
        <use
           xlink:href="#DejaVuSans-Oblique-51"
           transform="translate(0,0.296875)"
           id="use107" />
        <use
           xlink:href="#DejaVuSans-Oblique-69"
           transform="matrix(0.7,0,0,0.7,79.667969,-16.109375)"
           id="use109" />
        <use
           xlink:href="#DejaVuSans-Oblique-6e"
           transform="matrix(0.7,0,0,0.7,99.116211,-16.109375)"
           id="use111" />
      </g>
    </g>
  </g>
  <g
     id="patch_8">
    <path
       d="M 60.398429,165.312 H 207.3288 V 16.128 H 60.398429 Z"
       style="fill:#ffffff"
       id="path117" />
  </g>
  <g
     id="matplotlib.axis_3" />
  <g
     id="matplotlib.axis_4">
    <g
       id="text_4">
      <!-- Mechanical work [kW] -->
      <g
         transform="matrix(0,-0.08,-0.08,0,54.734679,134.84062)"
         id="g170">
        <defs
           id="defs128">
          <path
             id="DejaVuSans-4d"
             d="m 628,4666 h 941 L 2759,1491 3956,4666 h 941 V 0 H 4281 V 4097 L 3078,897 H 2444 L 1241,4097 V 0 H 628 Z"
             transform="scale(0.015625)" />
          <path
             id="DejaVuSans-63"
             d="m 3122,3366 v -538 q -244,135 -489,202 -245,67 -495,67 -560,0 -870,-355 -309,-354 -309,-995 0,-641 309,-996 310,-354 870,-354 250,0 495,67 245,67 489,202 V 134 Q 2881,22 2623,-34 2366,-91 2075,-91 1284,-91 818,406 353,903 353,1747 q 0,856 470,1346 471,491 1290,491 265,0 518,-55 253,-54 491,-163 z"
             transform="scale(0.015625)" />
          <path
             id="DejaVuSans-68"
             d="M 3513,2113 V 0 h -575 v 2094 q 0,497 -194,743 -194,247 -581,247 -466,0 -735,-297 -269,-296 -269,-809 V 0 H 581 v 4863 h 578 V 2956 q 207,316 486,472 280,156 646,156 603,0 912,-373 310,-373 310,-1098 z"
             transform="scale(0.015625)" />
          <path
             id="DejaVuSans-6c"
             d="m 603,4863 h 575 V 0 H 603 Z"
             transform="scale(0.015625)" />
          <path
             id="DejaVuSans-77"
             d="m 269,3500 h 575 l 719,-2731 715,2731 h 678 l 719,-2731 716,2731 h 575 L 4050,0 H 3372 L 2619,2869 1863,0 h -679 z"
             transform="scale(0.015625)" />
          <path
             id="DejaVuSans-6f"
             d="m 1959,3097 q -462,0 -731,-361 -269,-361 -269,-989 0,-628 267,-989 268,-361 733,-361 460,0 728,362 269,363 269,988 0,622 -269,986 -268,364 -728,364 z m 0,487 q 750,0 1178,-488 429,-487 429,-1349 Q 3566,888 3137,398 2709,-91 1959,-91 1206,-91 779,398 353,888 353,1747 q 0,862 426,1349 427,488 1180,488 z"
             transform="scale(0.015625)" />
          <path
             id="DejaVuSans-72"
             d="m 2631,2963 q -97,56 -211,82 -114,27 -251,27 -488,0 -749,-317 -261,-317 -261,-911 V 0 H 581 v 3500 h 578 v -544 q 182,319 472,473 291,155 707,155 59,0 131,-8 72,-7 159,-23 z"
             transform="scale(0.015625)" />
        </defs>
        <use
           xlink:href="#DejaVuSans-4d"
           id="use130" />
        <use
           xlink:href="#DejaVuSans-65"
           transform="translate(86.279297)"
           id="use132" />
        <use
           xlink:href="#DejaVuSans-63"
           transform="translate(147.80273)"
           id="use134" />
        <use
           xlink:href="#DejaVuSans-68"
           transform="translate(202.7832)"
           id="use136" />
        <use
           xlink:href="#DejaVuSans-61"
           transform="translate(266.16211)"
           id="use138" />
        <use
           xlink:href="#DejaVuSans-6e"
           transform="translate(327.44141)"
           id="use140" />
        <use
           xlink:href="#DejaVuSans-69"
           transform="translate(390.82031)"
           id="use142" />
        <use
           xlink:href="#DejaVuSans-63"
           transform="translate(418.60352)"
           id="use144" />
        <use
           xlink:href="#DejaVuSans-61"
           transform="translate(473.58398)"
           id="use146" />
        <use
           xlink:href="#DejaVuSans-6c"
           transform="translate(534.86328)"
           id="use148" />
        <use
           xlink:href="#DejaVuSans-20"
           transform="translate(562.64648)"
           id="use150" />
        <use
           xlink:href="#DejaVuSans-77"
           transform="translate(594.43359)"
           id="use152" />
        <use
           xlink:href="#DejaVuSans-6f"
           transform="translate(676.2207)"
           id="use154" />
        <use
           xlink:href="#DejaVuSans-72"
           transform="translate(737.40234)"
           id="use156" />
        <use
           xlink:href="#DejaVuSans-6b"
           transform="translate(778.51562)"
           id="use158" />
        <use
           xlink:href="#DejaVuSans-20"
           transform="translate(836.42578)"
           id="use160" />
        <use
           xlink:href="#DejaVuSans-5b"
           transform="translate(868.21289)"
           id="use162" />
        <use
           xlink:href="#DejaVuSans-6b"
           transform="translate(907.22656)"
           id="use164" />
        <use
           xlink:href="#DejaVuSans-57"
           transform="translate(965.13672)"
           id="use166" />
        <use
           xlink:href="#DejaVuSans-5d"
           transform="translate(1064.0137)"
           id="use168" />
      </g>
    </g>
  </g>
  <g
     id="patch_9">
    <path
       d="M 60.398429,165.312 V 16.128"
       style="fill:none;stroke:#000000;stroke-width:0.6;stroke-linecap:square;stroke-linejoin:miter"
       id="path174" />
  </g>
  <g
     id="patch_10">
    <path
       d="M 60.398429,151.74982 H 207.3288"
       style="fill:none;stroke:#000000;stroke-width:0.6;stroke-linecap:square;stroke-linejoin:miter"
       id="path177" />
  </g>
  <g
     id="patch_11">
    <path
       d="M 68.561227,151.74982 H 87.947874 V 94.267903 H 68.561227 Z"
       clip-path="url(#pf0e4122a49)"
       style="fill:url(#hfde2d8f711);fill-opacity:0.65;stroke:#000000;stroke-width:0.6;stroke-linejoin:miter"
       id="path180" />
  </g>
  <g
     id="patch_14">
    <path
       d="m 152.74009,109.18111 h 19.38664 V 94.267903 h -19.38664 z"
       clip-path="url(#pf0e4122a49)"
       style="fill:#b2d1f2;fill-opacity:0.65;stroke:#000000;stroke-width:0.6;stroke-linejoin:miter"
       id="path189" />
  </g>
  <g
     id="patch_15">
    <path
       d="m 180.7997,151.74982 h 19.38665 V 109.18111 H 180.7997 Z"
       clip-path="url(#pf0e4122a49)"
       style="stroke:#000000;stroke-width:0.6;stroke-linejoin:miter"
       id="path192" />
  </g>
  <g
     id="patch_16">
    <path
       d="m 60.398429,26.065344 q 0,-6.952483 0,-13.01054"
       style="fill:none;stroke:#000000;stroke-width:0.8;stroke-linecap:round"
       id="path195" />
    <path
       d="m 58.398429,17.054804 2,-4 2,4"
       style="fill:none;stroke:#000000;stroke-width:0.8;stroke-linecap:round"
       id="path197" />
  </g>
  <g
     id="patch_17">
    <path
       d="m 197.57242,151.74982 q 5.34795,0 9.80147,0"
       style="fill:none;stroke:#000000;stroke-width:0.8;stroke-linecap:round"
       id="path200" />
    <path
       d="m 203.37389,149.74982 4,2 -4,2"
       style="fill:none;stroke:#000000;stroke-width:0.8;stroke-linecap:round"
       id="path202" />
  </g>
  <g
     id="line2d_1">
    <path
       d="M 87.947874,94.267903 H 152.74009"
       clip-path="url(#pf0e4122a49)"
       style="fill:none;stroke:#000000;stroke-width:0.6;stroke-dasharray:0.6, 0.99;stroke-dashoffset:0"
       id="path205" />
  </g>
  <g
     id="line2d_2">
    <path
       d="m 172.12673,109.18111 h 8.67297"
       clip-path="url(#pf0e4122a49)"
       style="fill:none;stroke:#000000;stroke-width:0.6;stroke-dasharray:0.6, 0.99;stroke-dashoffset:0"
       id="path208" />
  </g>
  <g
     id="text_5">
    <!-- +945 -->
    <g
       transform="matrix(0.07,0,0,-0.07,68.641035,92.811392)"
       id="g225">
      <defs
         id="defs215">
        <path
           id="DejaVuSans-2b"
           d="M 2944,4013 V 2272 H 4684 V 1741 H 2944 V 0 H 2419 V 1741 H 678 v 531 h 1741 v 1741 z"
           transform="scale(0.015625)" />
        <path
           id="DejaVuSans-39"
           d="m 703,97 v 575 q 238,-113 481,-172 244,-59 479,-59 625,0 954,420 330,420 377,1277 -181,-269 -460,-413 -278,-144 -615,-144 -700,0 -1108,423 -408,424 -408,1159 0,718 425,1152 425,435 1131,435 810,0 1236,-621 427,-620 427,-1801 Q 3622,1225 3098,567 2575,-91 1691,-91 1453,-91 1209,-44 966,3 703,97 Z m 1256,1978 q 425,0 673,290 249,291 249,798 0,503 -249,795 -248,292 -673,292 -425,0 -673,-292 -248,-292 -248,-795 0,-507 248,-798 248,-290 673,-290 z"
           transform="scale(0.015625)" />
        <path
           id="DejaVuSans-34"
           d="M 2419,4116 825,1625 h 1594 z m -166,550 h 794 V 1625 h 666 V 1100 H 3047 V 0 H 2419 V 1100 H 313 v 609 z"
           transform="scale(0.015625)" />
        <path
           id="DejaVuSans-35"
           d="M 691,4666 H 3169 V 4134 H 1269 V 2991 q 137,47 274,70 138,23 276,23 781,0 1237,-428 457,-428 457,-1159 Q 3513,744 3044,326 2575,-91 1722,-91 1428,-91 1123,-41 819,9 494,109 v 635 q 281,-153 581,-228 300,-75 634,-75 541,0 856,284 316,284 316,772 0,487 -316,771 -315,285 -856,285 -253,0 -505,-56 -251,-56 -513,-175 z"
           transform="scale(0.015625)" />
      </defs>
      <use
         xlink:href="#DejaVuSans-2b"
         id="use217" />
      <use
         xlink:href="#DejaVuSans-39"
         transform="translate(83.789062)"
         id="use219" />
      <use
         xlink:href="#DejaVuSans-34"
         transform="translate(147.41211)"
         id="use221" />
      <use
         xlink:href="#DejaVuSans-35"
         transform="translate(211.03516)"
         id="use223" />
    </g>
  </g>
  <g
     id="text_6">
    <!-- -245 -->
    <g
       transform="matrix(0.07,0,0,-0.07,154.49005,92.811392)"
       id="g239">
      <defs
         id="defs229">
        <path
           id="DejaVuSans-2d"
           d="M 313,2009 H 1997 V 1497 H 313 Z"
           transform="scale(0.015625)" />
      </defs>
      <use
         xlink:href="#DejaVuSans-2d"
         id="use231" />
      <use
         xlink:href="#DejaVuSans-32"
         transform="translate(36.083984)"
         id="use233" />
      <use
         xlink:href="#DejaVuSans-34"
         transform="translate(99.707031)"
         id="use235" />
      <use
         xlink:href="#DejaVuSans-35"
         transform="translate(163.33008)"
         id="use237" />
    </g>
  </g>
  <g
     id="text_7">
    <!-- 700 -->
    <g
       transform="matrix(0.07,0,0,-0.07,183.8124,107.72459)"
       id="g248">
      <use
         xlink:href="#DejaVuSans-37"
         id="use242" />
      <use
         xlink:href="#DejaVuSans-30"
         transform="translate(63.623047)"
         id="use244" />
      <use
         xlink:href="#DejaVuSans-30"
         transform="translate(127.24609)"
         id="use246" />
    </g>
  </g>
  <g
     id="text_8">
    <!-- Comb. -->
    <g
       transform="matrix(0.07,0,0,-0.07,66.925488,170.63528)"
       id="g267">
      <defs
         id="defs255">
        <path
           id="DejaVuSans-43"
           d="m 4122,4306 v -665 q -319,297 -680,443 -361,147 -767,147 -800,0 -1225,-489 -425,-489 -425,-1414 0,-922 425,-1411 425,-489 1225,-489 406,0 767,147 361,147 680,444 V 359 Q 3791,134 3420,21 3050,-91 2638,-91 1578,-91 968,557 359,1206 359,2328 q 0,1125 609,1773 610,649 1670,649 418,0 788,-111 371,-111 696,-333 z"
           transform="scale(0.015625)" />
        <path
           id="DejaVuSans-6d"
           d="m 3328,2828 q 216,388 516,572 300,184 706,184 547,0 844,-383 297,-382 297,-1088 V 0 h -578 v 2094 q 0,503 -179,746 -178,244 -543,244 -447,0 -707,-297 -259,-296 -259,-809 V 0 h -578 v 2094 q 0,506 -178,748 -178,242 -550,242 -441,0 -701,-298 -259,-298 -259,-808 V 0 H 581 v 3500 h 578 v -544 q 197,322 472,475 275,153 653,153 382,0 649,-194 267,-193 395,-562 z"
           transform="scale(0.015625)" />
        <path
           id="DejaVuSans-62"
           d="m 3116,1747 q 0,634 -261,995 -261,361 -717,361 -457,0 -718,-361 -261,-361 -261,-995 0,-634 261,-995 261,-361 718,-361 456,0 717,361 261,361 261,995 z M 1159,2969 q 182,312 458,463 277,152 661,152 638,0 1036,-506 399,-506 399,-1331 Q 3713,922 3314,415 2916,-91 2278,-91 1894,-91 1617,61 1341,213 1159,525 V 0 H 581 v 4863 h 578 z"
           transform="scale(0.015625)" />
        <path
           id="DejaVuSans-2e"
           d="m 684,794 h 660 V 0 H 684 Z"
           transform="scale(0.015625)" />
      </defs>
      <use
         xlink:href="#DejaVuSans-43"
         id="use257" />
      <use
         xlink:href="#DejaVuSans-6f"
         transform="translate(69.824219)"
         id="use259" />
      <use
         xlink:href="#DejaVuSans-6d"
         transform="translate(131.00586)"
         id="use261" />
      <use
         xlink:href="#DejaVuSans-62"
         transform="translate(228.41797)"
         id="use263" />
      <use
         xlink:href="#DejaVuSans-2e"
         transform="translate(291.89453)"
         id="use265" />
    </g>
  </g>
  <g
     id="text_9">
    <!-- Comp. -->
    <g
       transform="matrix(0.07,0,0,-0.07,151.10435,170.63528)"
       id="g280">
      <use
         xlink:href="#DejaVuSans-43"
         id="use270" />
      <use
         xlink:href="#DejaVuSans-6f"
         transform="translate(69.824219)"
         id="use272" />
      <use
         xlink:href="#DejaVuSans-6d"
         transform="translate(131.00586)"
         id="use274" />
      <use
         xlink:href="#DejaVuSans-70"
         transform="translate(228.41797)"
         id="use276" />
      <use
         xlink:href="#DejaVuSans-2e"
         transform="translate(291.89453)"
         id="use278" />
    </g>
    <!-- &amp; Turb. -->
    <g
       transform="matrix(0.07,0,0,-0.07,149.992,178.47375)"
       id="g300">
      <defs
         id="defs284">
        <path
           id="DejaVuSans-26"
           d="m 1556,2509 q -284,-253 -417,-505 -133,-251 -133,-526 0,-456 331,-759 332,-303 832,-303 297,0 556,98 259,99 488,299 z m 441,350 1587,-1625 q 185,279 288,596 103,317 122,673 h 581 Q 4538,2091 4375,1687 4213,1284 3922,891 L 4794,0 H 4006 L 3559,459 Q 3234,181 2878,45 2522,-91 2113,-91 1359,-91 881,339 403,769 403,1441 q 0,400 209,751 210,352 629,661 -150,197 -229,392 -78,196 -78,383 0,506 347,814 347,308 922,308 260,0 517,-56 258,-56 524,-169 v -569 q -272,147 -519,223 -247,77 -459,77 -328,0 -533,-174 -205,-173 -205,-448 0,-159 92,-320 93,-161 377,-455 z"
           transform="scale(0.015625)" />
        <path
           id="DejaVuSans-54"
           d="M -19,4666 H 3928 V 4134 H 2272 V 0 H 1638 V 4134 H -19 Z"
           transform="scale(0.015625)" />
      </defs>
      <use
         xlink:href="#DejaVuSans-26"
         id="use286" />
      <use
         xlink:href="#DejaVuSans-20"
         transform="translate(77.978516)"
         id="use288" />
      <use
         xlink:href="#DejaVuSans-54"
         transform="translate(109.76563)"
         id="use290" />
      <use
         xlink:href="#DejaVuSans-75"
         transform="translate(155.72461)"
         id="use292" />
      <use
         xlink:href="#DejaVuSans-72"
         transform="translate(219.10352)"
         id="use294" />
      <use
         xlink:href="#DejaVuSans-62"
         transform="translate(260.2168)"
         id="use296" />
      <use
         xlink:href="#DejaVuSans-2e"
         transform="translate(323.69336)"
         id="use298" />
    </g>
  </g>
  <g
     id="text_10">
    <!-- $\dot{W}_{net}$ -->
    <g
       transform="matrix(0.07,0,0,-0.07,182.86303,172.5406)"
       id="g318">
      <defs
         id="defs306">
        <path
           id="DejaVuSans-Oblique-57"
           d="m 616,4666 h 612 L 1453,697 3213,4666 h 703 L 4147,697 5888,4666 h 640 L 4453,0 H 3659 L 3444,3891 1697,0 H 903 Z"
           transform="scale(0.015625)" />
        <path
           id="DejaVuSans-Oblique-65"
           d="m 3078,2063 q 10,50 14,103 5,53 5,106 0,381 -224,603 -223,222 -607,222 -428,0 -757,-271 -328,-270 -496,-767 z m 500,-450 H 903 q -19,-119 -25,-188 -6,-69 -6,-119 0,-434 267,-672 267,-237 755,-237 375,0 709,84 335,85 622,247 L 3116,159 Q 2806,34 2476,-28 2147,-91 1806,-91 1078,-91 686,257 294,606 294,1247 q 0,547 195,1017 195,470 574,839 243,231 579,356 336,125 714,125 594,0 945,-356 352,-356 352,-956 0,-144 -19,-308 -18,-164 -56,-351 z"
           transform="scale(0.015625)" />
        <path
           id="DejaVuSans-Oblique-74"
           d="m 2706,3500 -87,-447 H 1472 L 1100,1153 q -19,-106 -28,-178 -9,-72 -9,-112 0,-200 120,-291 120,-91 386,-91 h 581 L 2053,0 H 1503 Q 991,0 739,200 488,400 488,806 q 0,72 9,158 9,86 28,189 L 897,3053 H 409 l 91,447 h 478 l 194,994 h 575 l -191,-994 z"
           transform="scale(0.015625)" />
      </defs>
      <use
         xlink:href="#DejaVuSans-307"
         transform="translate(87.312988,30.015625)"
         id="use308" />
      <use
         xlink:href="#DejaVuSans-Oblique-57"
         transform="translate(0,0.609375)"
         id="use310" />
      <use
         xlink:href="#DejaVuSans-Oblique-6e"
         transform="matrix(0.7,0,0,0.7,99.833984,-15.796875)"
         id="use312" />
      <use
         xlink:href="#DejaVuSans-Oblique-65"
         transform="matrix(0.7,0,0,0.7,144.19922,-15.796875)"
         id="use314" />
      <use
         xlink:href="#DejaVuSans-Oblique-74"
         transform="matrix(0.7,0,0,0.7,187.26562,-15.796875)"
         id="use316" />
    </g>
  </g>
  <g
     id="legend_1">
    <g
       id="patch_18">
      <path
         d="m 159.22005,28.263 h 13.2 v -6.735 h -13.2 z"
         style="fill:url(#hfde2d8f711);fill-opacity:0.65;stroke:#000000;stroke-linejoin:miter"
         id="path321" />
    </g>
    <g
       id="text_11">
      <!-- Thermal -->
      <g
         transform="matrix(0.06,0,0,-0.06,177.22005,26.898)"
         id="g338">
        <use
           xlink:href="#DejaVuSans-54"
           id="use324" />
        <use
           xlink:href="#DejaVuSans-68"
           transform="translate(61.083984)"
           id="use326" />
        <use
           xlink:href="#DejaVuSans-65"
           transform="translate(124.46289)"
           id="use328" />
        <use
           xlink:href="#DejaVuSans-72"
           transform="translate(185.98633)"
           id="use330" />
        <use
           xlink:href="#DejaVuSans-6d"
           transform="translate(225.34961)"
           id="use332" />
        <use
           xlink:href="#DejaVuSans-61"
           transform="translate(322.76172)"
           id="use334" />
        <use
           xlink:href="#DejaVuSans-6c"
           transform="translate(384.04102)"
           id="use336" />
      </g>
    </g>
    <g
       id="patch_19">
      <path
         d="m 159.22005,37.098 h 13.2 v -6.735 h -13.2 z"
         style="fill:#b2d1f2;fill-opacity:0.65;stroke:#000000;stroke-linejoin:miter"
         id="path341" />
    </g>
    <g
       id="text_12">
      <!-- Viscous -->
      <g
         transform="matrix(0.06,0,0,-0.06,177.22005,35.733)"
         id="g362">
        <defs
           id="defs346">
          <path
             id="DejaVuSans-56"
             d="M 1831,0 50,4666 H 709 L 2188,738 3669,4666 h 656 L 2547,0 Z"
             transform="scale(0.015625)" />
          <path
             id="DejaVuSans-73"
             d="m 2834,3397 v -544 q -243,125 -506,187 -262,63 -544,63 -428,0 -642,-131 -214,-131 -214,-394 0,-200 153,-314 153,-114 616,-217 l 197,-44 q 612,-131 870,-370 258,-239 258,-667 0,-488 -386,-773 Q 2250,-91 1575,-91 1294,-91 989,-36 684,19 347,128 v 594 q 319,-166 628,-249 309,-82 613,-82 406,0 624,139 219,139 219,392 0,234 -158,359 -157,125 -692,241 l -200,47 q -534,112 -772,345 -237,233 -237,639 0,494 350,762 350,269 994,269 318,0 599,-47 282,-46 519,-140 z"
             transform="scale(0.015625)" />
        </defs>
        <use
           xlink:href="#DejaVuSans-56"
           id="use348" />
        <use
           xlink:href="#DejaVuSans-69"
           transform="translate(66.158203)"
           id="use350" />
        <use
           xlink:href="#DejaVuSans-73"
           transform="translate(93.941406)"
           id="use352" />
        <use
           xlink:href="#DejaVuSans-63"
           transform="translate(146.04102)"
           id="use354" />
        <use
           xlink:href="#DejaVuSans-6f"
           transform="translate(201.02148)"
           id="use356" />
        <use
           xlink:href="#DejaVuSans-75"
           transform="translate(262.20312)"
           id="use358" />
        <use
           xlink:href="#DejaVuSans-73"
           transform="translate(325.58203)"
           id="use360" />
      </g>
    </g>
  </g>
  <defs
     id="defs374">
    <clipPath
       id="p332ef23dd1">
      <rect
         x="14.8092"
         y="16.128"
         width="34.691893"
         height="149.184"
         id="rect368" />
    </clipPath>
    <clipPath
       id="pf0e4122a49">
      <rect
         x="60.398429"
         y="16.128"
         width="146.930371"
         height="149.184"
         id="rect371" />
    </clipPath>
  </defs>
  <defs
     id="defs381">
    <pattern
       id="hfde2d8f711"
       patternUnits="userSpaceOnUse"
       x="0"
       y="0"
       width="72"
       height="72">
      <rect
         x="0"
         y="0"
         width="73"
         height="73"
         fill="#f29999"
         id="rect376" />
      <path
         d="M -36 36  L 36 -36  M -32 40  L 40 -32  M -28 44  L 44 -28  M -24 48  L 48 -24  M -20 52  L 52 -20  M -16 56  L 56 -16  M -12 60  L 60 -12  M -8 64  L 64 -8  M -4 68  L 68 -4  M 0 72  L 72 0  M 4 76  L 76 4  M 8 80  L 80 8  M 12 84  L 84 12  M 16 88  L 88 16  M 20 92  L 92 20  M 24 96  L 96 24  M 28 100  L 100 28  M 32 104  L 104 32  M 36 108  L 108 36  "
         style="fill: #000000; stroke: #000000; stroke-width: 0.5; stroke-linecap: butt; stroke-linejoin: miter"
         id="path378" />
    </pattern>
  </defs>
</svg>
